<svg width="18" height="18" viewBox="0 0 18 18" fill="none" xmlns="http://www.w3.org/2000/svg">
<path d="M11.25 15.7498H6.75M11.25 15.7498V9.44977C11.25 9.33042 11.2026 9.21596 11.1182 9.13157C11.0338 9.04718 10.9193 8.99977 10.8 8.99977H7.2C7.08065 8.99977 6.96619 9.04718 6.8818 9.13157C6.79741 9.21596 6.75 9.33042 6.75 9.44977V15.7498M11.25 15.7498H15.3C15.4193 15.7498 15.5338 15.7024 15.6182 15.618C15.7026 15.5336 15.75 15.4191 15.75 15.2998V13.5748C15.75 13.4554 15.7026 13.341 15.6182 13.2566C15.5338 13.1722 15.4193 13.1248 15.3 13.1248H11.7C11.5807 13.1248 11.4662 13.1722 11.3818 13.2566C11.2974 13.341 11.25 13.4554 11.25 13.5748V15.7498ZM6.75 15.7498V12.0748C6.75 11.9554 6.70259 11.841 6.6182 11.7566C6.53381 11.6722 6.41935 11.6248 6.3 11.6248H2.7C2.58065 11.6248 2.46619 11.6722 2.3818 11.7566C2.29741 11.841 2.25 11.9554 2.25 12.0748V15.2998C2.25 15.4191 2.29741 15.5336 2.3818 15.618C2.46619 15.7024 2.58065 15.7498 2.7 15.7498H6.75ZM8.1045 3.83452L8.78625 2.38927C8.80466 2.34795 8.83464 2.31286 8.87258 2.28823C8.91051 2.2636 8.95477 2.25049 9 2.25049C9.04523 2.25049 9.08949 2.2636 9.12742 2.28823C9.16536 2.31286 9.19534 2.34795 9.21375 2.38927L9.89625 3.83452L11.4203 4.06777C11.616 4.09777 11.694 4.34977 11.5522 4.49377L10.4497 5.61877L10.71 7.20727C10.743 7.41127 10.539 7.56727 10.3635 7.47052L9 6.72052L7.6365 7.47052C7.46175 7.56652 7.257 7.41127 7.29 7.20727L7.55025 5.61877L6.44775 4.49377C6.30525 4.34977 6.384 4.09777 6.579 4.06777L8.1045 3.83452Z" stroke="#98A2B3" stroke-linecap="round" stroke-linejoin="round"/>
</svg>
