<svg width="18" height="18" viewBox="0 0 18 18" fill="none" xmlns="http://www.w3.org/2000/svg">
<path d="M8.14597 2.52225C8.52622 1.8405 8.71597 1.5 9.00022 1.5C9.28447 1.5 9.47422 1.8405 9.85447 2.52225L9.95197 2.6985C10.0607 2.89275 10.1147 2.9895 10.1987 3.05325C10.2827 3.117 10.3877 3.141 10.5977 3.18825L10.7882 3.23175C11.5262 3.39825 11.8952 3.48225 11.983 3.76425C12.0707 4.04625 11.8195 4.341 11.3162 4.929L11.1857 5.08125C11.0432 5.2485 10.972 5.33175 10.9397 5.43525C10.9075 5.53875 10.918 5.6505 10.9397 5.87325L10.9592 6.07575C11.0357 6.861 11.0732 7.25325 10.8437 7.428C10.6142 7.60275 10.2685 7.443 9.57772 7.125L9.39847 7.0425C9.20272 6.9525 9.10447 6.9075 9.00022 6.9075C8.89597 6.9075 8.79772 6.9525 8.60197 7.0425L8.42272 7.125C7.73272 7.44375 7.38622 7.60275 7.15672 7.428C6.92722 7.25325 6.96472 6.861 7.04122 6.0765L7.06072 5.87325C7.08247 5.6505 7.09297 5.53875 7.06072 5.43525C7.02847 5.33175 6.95722 5.24775 6.81472 5.08125L6.68422 4.929C6.18172 4.341 5.92972 4.04625 6.01747 3.76425C6.10522 3.48225 6.47422 3.39825 7.21222 3.23175L7.40272 3.18825C7.61272 3.141 7.71772 3.117 7.80172 3.05325C7.88572 2.9895 7.93972 2.89275 8.04772 2.6985L8.14597 2.52225ZM14.5727 5.7615C14.7632 5.42025 14.8577 5.25 15.0002 5.25C15.1427 5.25 15.2372 5.42025 15.4277 5.7615L15.4765 5.84925C15.5305 5.94675 15.5575 5.99475 15.5995 6.027C15.6415 6.0585 15.694 6.0705 15.799 6.0945L15.8942 6.1155C16.2632 6.1995 16.4477 6.24075 16.4912 6.3825C16.5355 6.5235 16.4095 6.6705 16.1582 6.9645L16.093 7.04025C16.0217 7.12425 15.9857 7.16625 15.97 7.218C15.9535 7.269 15.9595 7.32525 15.97 7.437L15.9797 7.53825C16.0172 7.9305 16.0367 8.127 15.922 8.214C15.8072 8.301 15.6347 8.2215 15.289 8.0625L15.199 8.02125C15.1015 7.97625 15.052 7.95375 15.0002 7.95375C14.9477 7.95375 14.899 7.97625 14.8007 8.02125L14.7115 8.0625C14.3665 8.2215 14.194 8.301 14.0785 8.214C13.9637 8.127 13.9825 7.9305 14.0207 7.53825L14.0305 7.437C14.041 7.3245 14.047 7.269 14.0305 7.218C14.0147 7.1655 13.9787 7.12425 13.9075 7.04025L13.8422 6.9645C13.591 6.6705 13.465 6.5235 13.5092 6.3825C13.5527 6.24075 13.7372 6.1995 14.1062 6.1155L14.2015 6.0945C14.3065 6.0705 14.359 6.0585 14.401 6.027C14.443 5.99475 14.47 5.946 14.524 5.84925L14.5727 5.7615ZM2.57272 5.7615C2.76397 5.42025 2.85772 5.25 3.00022 5.25C3.14272 5.25 3.23722 5.42025 3.42772 5.7615L3.47647 5.84925C3.53047 5.94675 3.55747 5.99475 3.59947 6.027C3.64147 6.0585 3.69397 6.0705 3.79897 6.0945L3.89422 6.1155C4.26322 6.1995 4.44772 6.24075 4.49197 6.3825C4.53547 6.5235 4.40947 6.6705 4.15822 6.9645L4.09297 7.04025C4.02172 7.12425 3.98572 7.16625 3.96997 7.218C3.95347 7.269 3.95947 7.32525 3.96997 7.437L3.97972 7.53825C4.01722 7.9305 4.03672 8.127 3.92197 8.214C3.80722 8.301 3.63397 8.2215 3.28897 8.0625L3.19897 8.02125C3.10147 7.97625 3.05197 7.95375 3.00022 7.95375C2.94772 7.95375 2.89897 7.97625 2.80072 8.02125L2.71147 8.0625C2.36647 8.2215 2.19397 8.301 2.07847 8.214C1.96372 8.127 1.98247 7.9305 2.02072 7.53825L2.03047 7.437C2.04097 7.3245 2.04697 7.269 2.03047 7.218C2.01472 7.1655 1.97872 7.12425 1.90747 7.04025L1.84222 6.9645C1.59097 6.6705 1.46497 6.5235 1.50847 6.3825C1.55272 6.24075 1.73722 6.1995 2.10622 6.1155L2.20147 6.0945C2.30647 6.0705 2.35897 6.0585 2.40097 6.027C2.44297 5.99475 2.46997 5.946 2.52397 5.84925L2.57272 5.7615Z" stroke="#98A2B3"/>
<path d="M3 16.0412H4.695C5.4525 16.0412 6.21975 16.1207 6.957 16.2722C8.27325 16.5426 9.62757 16.5725 10.9545 16.3607M10.257 13.8879C10.347 13.8774 10.4332 13.8654 10.5157 13.8527C11.199 13.7439 11.7727 13.3779 12.2977 12.9812L13.6537 11.9574C13.8957 11.7814 14.1871 11.6867 14.4863 11.6867C14.7854 11.6867 15.0768 11.7814 15.3187 11.9574C15.7485 12.2822 15.8805 12.8169 15.6083 13.2534C15.291 13.7619 14.844 14.4122 14.415 14.8097M10.257 13.8879C10.2295 13.8911 10.202 13.8941 10.1745 13.8969M10.257 13.8879C10.377 13.8554 10.4871 13.7936 10.5772 13.7079C10.6903 13.6101 10.7826 13.4907 10.8487 13.3567C10.9148 13.2227 10.9534 13.0768 10.9622 12.9276C10.971 12.7784 10.9498 12.629 10.9 12.4881C10.8501 12.3472 10.7725 12.2178 10.6718 12.1074C10.574 11.9989 10.4602 11.9061 10.3343 11.8322C8.2365 10.5804 4.97175 11.5337 3 12.9324M10.257 13.8879C10.2299 13.8938 10.2022 13.8968 10.1745 13.8969M10.1745 13.8969C9.72219 13.9424 9.26651 13.9434 8.814 13.8999" stroke="#98A2B3" stroke-linecap="round"/>
</svg>
