<svg width="18" height="18" viewBox="0 0 18 18" fill="none" xmlns="http://www.w3.org/2000/svg">
<path d="M15.1877 9.42767V8.56704L16.2677 7.62204C16.4668 7.44657 16.5974 7.20637 16.6365 6.94389C16.6757 6.68142 16.6207 6.41356 16.4815 6.18767L15.154 3.93767C15.0553 3.76682 14.9135 3.62491 14.7427 3.52618C14.5719 3.42745 14.3781 3.37537 14.1808 3.37517C14.0586 3.37423 13.937 3.39323 13.8208 3.43142L12.454 3.89267C12.218 3.73585 11.9718 3.59491 11.7171 3.47079L11.4302 2.05329C11.3788 1.79432 11.2379 1.56169 11.0322 1.39613C10.8265 1.23056 10.5692 1.14261 10.3052 1.14767H7.6727C7.40872 1.14261 7.15137 1.23056 6.9457 1.39613C6.74003 1.56169 6.59914 1.79432 6.5477 2.05329L6.26083 3.47079C6.00429 3.59488 5.75625 3.73581 5.51833 3.89267L4.17958 3.40892C4.06218 3.37833 3.94061 3.36693 3.81958 3.37517C3.6223 3.37537 3.42853 3.42745 3.25773 3.52618C3.08693 3.62491 2.94509 3.76682 2.84645 3.93767L1.51895 6.18767C1.38766 6.41322 1.33887 6.67741 1.38094 6.93498C1.42302 7.19256 1.55333 7.42749 1.74958 7.59954L2.8127 8.57267V9.43329L1.74958 10.3783C1.54779 10.5515 1.41391 10.7907 1.37169 11.0533C1.32947 11.3158 1.38164 11.5849 1.51895 11.8127L2.84645 14.0627C2.94509 14.2335 3.08693 14.3754 3.25773 14.4742C3.42853 14.5729 3.6223 14.625 3.81958 14.6252C3.94184 14.6261 4.06343 14.6071 4.17958 14.5689L5.54645 14.1077C5.78244 14.2645 6.02861 14.4054 6.28333 14.5295L6.5702 15.947C6.62164 16.206 6.76253 16.4386 6.9682 16.6042C7.17387 16.7698 7.43122 16.8577 7.6952 16.8527H10.3502C10.6142 16.8577 10.8715 16.7698 11.0772 16.6042C11.2829 16.4386 11.4238 16.206 11.4752 15.947L11.7621 14.5295C12.0186 14.4055 12.2667 14.2645 12.5046 14.1077L13.8658 14.5689C13.982 14.6071 14.1036 14.6261 14.2258 14.6252C14.4231 14.625 14.6169 14.5729 14.7877 14.4742C14.9585 14.3754 15.1003 14.2335 15.199 14.0627L16.4815 11.8127C16.6127 11.5871 16.6615 11.3229 16.6195 11.0654C16.5774 10.8078 16.4471 10.5728 16.2508 10.4008L15.1877 9.42767ZM14.1808 13.5002L12.2515 12.8477C11.7998 13.2302 11.2836 13.5293 10.7271 13.7308L10.3277 15.7502H7.6727L7.27333 13.7533C6.72119 13.5461 6.20779 13.2475 5.75458 12.8702L3.81958 13.5002L2.49208 11.2502L4.02208 9.90017C3.91807 9.3179 3.91807 8.72181 4.02208 8.13954L2.49208 6.75017L3.81958 4.50017L5.74895 5.15267C6.2006 4.77011 6.71679 4.47106 7.27333 4.26954L7.6727 2.25017H10.3277L10.7271 4.24704C11.2792 4.45428 11.7926 4.75281 12.2458 5.13017L14.1808 4.50017L15.5083 6.75017L13.9783 8.10017C14.0823 8.68243 14.0823 9.27853 13.9783 9.86079L15.5083 11.2502L14.1808 13.5002Z" fill="#98A2B3"/>
<path d="M9 12.375C8.33249 12.375 7.67997 12.1771 7.12495 11.8062C6.56994 11.4354 6.13735 10.9083 5.88191 10.2916C5.62646 9.67486 5.55963 8.99626 5.68985 8.34157C5.82008 7.68689 6.14151 7.08552 6.61352 6.61352C7.08552 6.14151 7.68689 5.82008 8.34157 5.68985C8.99626 5.55963 9.67486 5.62646 10.2916 5.88191C10.9083 6.13735 11.4354 6.56994 11.8062 7.12495C12.1771 7.67997 12.375 8.33249 12.375 9C12.3795 9.44447 12.2953 9.88537 12.1273 10.2969C11.9593 10.7084 11.7108 11.0822 11.3965 11.3965C11.0822 11.7108 10.7084 11.9593 10.2969 12.1273C9.88537 12.2953 9.44447 12.3795 9 12.375ZM9 6.75C8.70263 6.74307 8.40695 6.79654 8.13084 6.90716C7.85472 7.01778 7.60391 7.18326 7.39359 7.39359C7.18326 7.60391 7.01778 7.85472 6.90716 8.13084C6.79654 8.40695 6.74307 8.70263 6.75 9C6.74307 9.29737 6.79654 9.59305 6.90716 9.86917C7.01778 10.1453 7.18326 10.3961 7.39359 10.6064C7.60391 10.8167 7.85472 10.9822 8.13084 11.0928C8.40695 11.2035 8.70263 11.2569 9 11.25C9.29737 11.2569 9.59305 11.2035 9.86917 11.0928C10.1453 10.9822 10.3961 10.8167 10.6064 10.6064C10.8167 10.3961 10.9822 10.1453 11.0928 9.86917C11.2035 9.59305 11.2569 9.29737 11.25 9C11.2569 8.70263 11.2035 8.40695 11.0928 8.13084C10.9822 7.85472 10.8167 7.60391 10.6064 7.39359C10.3961 7.18326 10.1453 7.01778 9.86917 6.90716C9.59305 6.79654 9.29737 6.74307 9 6.75Z" fill="#98A2B3"/>
</svg>
