<svg width="18" height="18" viewBox="0 0 18 18" fill="none" xmlns="http://www.w3.org/2000/svg">
<path d="M3.83231 1.35352L3.04031 2.14439L4.21875 3.32227L5.00963 2.53139L3.83231 1.35352ZM14.1682 1.35352L12.9898 2.53139L13.7812 3.32227L14.9591 2.14495L14.1682 1.35352ZM9 1.70452C8.81437 1.70677 8.6265 1.71745 8.4375 1.74052C8.43188 1.74052 8.42625 1.73939 8.42063 1.74052C6.13913 2.00208 4.32337 3.84539 4.00781 6.11677C3.75581 7.94489 4.50956 9.60258 5.76562 10.6702C6.27942 11.1087 6.62694 11.7104 6.75 12.3746V15.7496H8.0325C8.22825 16.0854 8.58544 16.3121 9 16.3121C9.41456 16.3121 9.77175 16.0854 9.9675 15.7496H11.25V13.4996H11.3029V12.8313C11.3029 12.0067 11.7315 11.1753 12.4279 10.529C13.3594 9.59639 14.0625 8.2717 14.0625 6.75014C14.0625 3.97139 11.7754 1.67864 9 1.70452ZM9 2.82952C11.1741 2.79914 12.9375 4.57889 12.9375 6.75014C12.9375 7.92802 12.3919 8.96527 11.6364 9.72014L11.6544 9.73814C10.9037 10.4304 10.4183 11.3631 10.2819 12.3751H7.82156C7.69781 11.411 7.28437 10.4778 6.50306 9.80845C5.50912 8.9647 4.91681 7.69345 5.11481 6.25795C5.36063 4.48608 6.79838 3.06127 8.56013 2.86608C8.70558 2.8458 8.85206 2.83378 8.99888 2.83008L9 2.82952ZM1.125 6.75014V7.87514H2.8125V6.75014H1.125ZM15.1875 6.75014V7.87514H16.875V6.75014H15.1875ZM4.21875 11.303L3.04088 12.4803L3.83231 13.2718L5.00906 12.0939L4.21875 11.303ZM13.7812 11.303L12.9904 12.0939L14.1677 13.2718L14.9591 12.4803L13.7812 11.303ZM7.875 13.5001H10.125V14.6251H7.875V13.5001Z" fill="#98A2B3"/>
</svg>
