<svg width="133" height="20" viewBox="0 0 133 20" fill="none" xmlns="http://www.w3.org/2000/svg">
<path d="M7.84415 17.4854L6.12866 16.9668C5.94868 16.9141 5.84743 16.7178 5.89805 16.5302L9.73682 2.75381C9.78744 2.5663 9.97586 2.46082 10.1558 2.51356L11.8713 3.03215C12.0513 3.08489 12.1526 3.2812 12.1019 3.46871L8.26318 17.2451C8.20975 17.4327 8.02414 17.5411 7.84415 17.4854ZM4.63815 14.198L5.8615 12.8386C5.99086 12.695 5.98242 12.4665 5.839 12.3346L3.29107 9.99948L5.839 7.66434C5.98242 7.53249 5.99367 7.30396 5.8615 7.16039L4.63815 5.80092C4.5116 5.66028 4.29787 5.65149 4.16007 5.78627L0.10757 9.74164C-0.0358566 9.87935 -0.0358566 10.1167 0.10757 10.2544L4.16007 14.2127C4.29787 14.3475 4.5116 14.3416 4.63815 14.198ZM13.8399 14.2156L17.8924 10.2573C18.0359 10.1196 18.0359 9.88228 17.8924 9.74457L13.8399 5.78334C13.7049 5.65149 13.4912 5.65735 13.3618 5.79799L12.1385 7.15746C12.0091 7.30103 12.0176 7.52956 12.161 7.66141L14.7089 9.99948L12.161 12.3346C12.0176 12.4665 12.0063 12.695 12.1385 12.8386L13.3618 14.198C13.4884 14.3416 13.7021 14.3475 13.8399 14.2156Z" fill="#E17B03"/>
<path d="M26.826 4.64H28.898V9.092H28.996C29.1733 8.66267 29.43 8.308 29.766 8.028C30.102 7.748 30.5593 7.608 31.138 7.608C31.5393 7.608 31.9033 7.68267 32.23 7.832C32.566 7.98133 32.8507 8.21 33.084 8.518C33.3267 8.826 33.5133 9.218 33.644 9.694C33.784 10.17 33.854 10.7347 33.854 11.388C33.854 12.0413 33.784 12.606 33.644 13.082C33.5133 13.558 33.3267 13.95 33.084 14.258C32.8507 14.566 32.566 14.7947 32.23 14.944C31.9033 15.0933 31.5393 15.168 31.138 15.168C30.5593 15.168 30.102 15.0327 29.766 14.762C29.43 14.482 29.1733 14.1227 28.996 13.684H28.898V15H26.826V4.64ZM30.242 13.558C30.7087 13.558 31.068 13.418 31.32 13.138C31.572 12.8487 31.698 12.452 31.698 11.948V10.828C31.698 10.324 31.572 9.932 31.32 9.652C31.068 9.36267 30.7087 9.218 30.242 9.218C29.878 9.218 29.5607 9.30667 29.29 9.484C29.0287 9.66133 28.898 9.94133 28.898 10.324V12.452C28.898 12.8347 29.0287 13.1147 29.29 13.292C29.5607 13.4693 29.878 13.558 30.242 13.558ZM40.3725 15C39.9432 15 39.5979 14.8927 39.3365 14.678C39.0752 14.454 38.9212 14.1367 38.8745 13.726H38.8045C38.6739 14.202 38.4125 14.5613 38.0205 14.804C37.6379 15.0467 37.1665 15.168 36.6065 15.168C35.9065 15.168 35.3419 14.9813 34.9125 14.608C34.4925 14.2253 34.2825 13.6933 34.2825 13.012C34.2825 12.256 34.5579 11.696 35.1085 11.332C35.6592 10.968 36.4665 10.786 37.5305 10.786H38.6925V10.422C38.6925 9.99267 38.5899 9.67067 38.3845 9.456C38.1885 9.232 37.8525 9.12 37.3765 9.12C36.9379 9.12 36.5832 9.204 36.3125 9.372C36.0419 9.54 35.8085 9.75933 35.6125 10.03L34.4785 9.022C34.7212 8.61133 35.0992 8.27533 35.6125 8.014C36.1352 7.74333 36.8025 7.608 37.6145 7.608C38.6039 7.608 39.3739 7.83667 39.9245 8.294C40.4845 8.742 40.7645 9.42333 40.7645 10.338V13.502H41.5625V15H40.3725ZM37.3905 13.81C37.7545 13.81 38.0625 13.7213 38.3145 13.544C38.5665 13.3667 38.6925 13.11 38.6925 12.774V11.906H37.5865C36.7372 11.906 36.3125 12.1907 36.3125 12.76V13.04C36.3125 13.292 36.4105 13.4833 36.6065 13.614C36.8025 13.7447 37.0639 13.81 37.3905 13.81ZM45.6031 15.168C45.0337 15.168 44.5204 15.084 44.0631 14.916C43.6151 14.7387 43.2324 14.4867 42.9151 14.16C42.6071 13.8333 42.3691 13.4367 42.2011 12.97C42.0331 12.5033 41.9491 11.976 41.9491 11.388C41.9491 10.8 42.0331 10.2727 42.2011 9.806C42.3691 9.33933 42.6071 8.94267 42.9151 8.616C43.2324 8.28933 43.6151 8.042 44.0631 7.874C44.5204 7.69667 45.0291 7.608 45.5891 7.608C46.3824 7.608 47.0171 7.77133 47.4931 8.098C47.9784 8.41533 48.3471 8.84 48.5991 9.372L47.0031 10.24C46.8724 9.96 46.6997 9.72667 46.4851 9.54C46.2797 9.35333 45.9811 9.26 45.5891 9.26C45.1131 9.26 44.7444 9.4 44.4831 9.68C44.2311 9.95067 44.1051 10.324 44.1051 10.8V11.976C44.1051 12.452 44.2311 12.83 44.4831 13.11C44.7444 13.3807 45.1224 13.516 45.6171 13.516C46.0184 13.516 46.3311 13.4227 46.5551 13.236C46.7884 13.0493 46.9844 12.8067 47.1431 12.508L48.7111 13.404C48.4497 13.936 48.0671 14.3653 47.5631 14.692C47.0684 15.0093 46.4151 15.168 45.6031 15.168ZM49.5736 4.64H51.6456V10.52H51.7436L52.7096 9.386L54.2216 7.776H56.6016L53.8016 10.632L56.8956 15H54.4316L52.3316 11.808L51.6456 12.494V15H49.5736V4.64ZM60.6141 15.168C59.4008 15.168 58.4815 14.832 57.8561 14.16C57.2308 13.488 56.9181 12.5733 56.9181 11.416C56.9181 10.828 56.9975 10.3007 57.1561 9.834C57.3241 9.358 57.5575 8.95667 57.8561 8.63C58.1641 8.294 58.5328 8.042 58.9621 7.874C59.4008 7.69667 59.8908 7.608 60.4321 7.608C60.9735 7.608 61.4588 7.69667 61.8881 7.874C62.3175 8.042 62.6815 8.28467 62.9801 8.602C63.2788 8.91933 63.5075 9.30667 63.6661 9.764C63.8341 10.212 63.9181 10.716 63.9181 11.276V11.892H58.9761V12.018C58.9761 12.4847 59.1208 12.8627 59.4101 13.152C59.6995 13.432 60.1241 13.572 60.6841 13.572C61.1135 13.572 61.4821 13.4927 61.7901 13.334C62.0981 13.166 62.3641 12.9467 62.5881 12.676L63.7081 13.894C63.4281 14.2393 63.0361 14.538 62.5321 14.79C62.0281 15.042 61.3888 15.168 60.6141 15.168ZM60.4461 9.092C59.9981 9.092 59.6388 9.232 59.3681 9.512C59.1068 9.78267 58.9761 10.1513 58.9761 10.618V10.73H61.8881V10.618C61.8881 10.142 61.7575 9.76867 61.4961 9.498C61.2441 9.22733 60.8941 9.092 60.4461 9.092ZM64.6827 15V7.776H66.7547V9.092H66.8387C66.9227 8.88667 67.0253 8.69533 67.1467 8.518C67.268 8.34067 67.4127 8.18667 67.5807 8.056C67.758 7.916 67.9587 7.80867 68.1827 7.734C68.416 7.65 68.6773 7.608 68.9667 7.608C69.312 7.608 69.6293 7.66867 69.9187 7.79C70.208 7.902 70.4553 8.07467 70.6607 8.308C70.866 8.54133 71.0247 8.826 71.1367 9.162C71.258 9.498 71.3187 9.88533 71.3187 10.324V15H69.2467V10.604C69.2467 9.67067 68.8407 9.204 68.0287 9.204C67.87 9.204 67.7113 9.22733 67.5527 9.274C67.4033 9.31133 67.268 9.37667 67.1467 9.47C67.0253 9.554 66.9273 9.66133 66.8527 9.792C66.7873 9.92267 66.7547 10.0767 66.7547 10.254V15H64.6827ZM76.8292 13.684H76.7312C76.5445 14.1227 76.2832 14.482 75.9472 14.762C75.6205 15.0327 75.1679 15.168 74.5892 15.168C74.1879 15.168 73.8192 15.0933 73.4832 14.944C73.1565 14.7947 72.8719 14.566 72.6292 14.258C72.3959 13.95 72.2092 13.558 72.0692 13.082C71.9385 12.606 71.8732 12.0413 71.8732 11.388C71.8732 10.7347 71.9385 10.17 72.0692 9.694C72.2092 9.218 72.3959 8.826 72.6292 8.518C72.8719 8.21 73.1565 7.98133 73.4832 7.832C73.8192 7.68267 74.1879 7.608 74.5892 7.608C74.8785 7.608 75.1352 7.64533 75.3592 7.72C75.5832 7.79467 75.7792 7.89733 75.9472 8.028C76.1245 8.15867 76.2739 8.31733 76.3952 8.504C76.5259 8.68133 76.6379 8.87733 76.7312 9.092H76.8292V4.64H78.9012V15H76.8292V13.684ZM75.4852 13.558C75.8492 13.558 76.1619 13.4693 76.4232 13.292C76.6939 13.1147 76.8292 12.8347 76.8292 12.452V10.324C76.8292 9.94133 76.6939 9.66133 76.4232 9.484C76.1619 9.30667 75.8492 9.218 75.4852 9.218C75.0185 9.218 74.6592 9.36267 74.4072 9.652C74.1552 9.932 74.0292 10.324 74.0292 10.828V11.948C74.0292 12.452 74.1552 12.8487 74.4072 13.138C74.6592 13.418 75.0185 13.558 75.4852 13.558ZM86.8562 15V7.776H88.5222V8.84H88.6202C88.7322 8.504 88.8909 8.21467 89.0962 7.972C89.3109 7.72933 89.6096 7.608 89.9922 7.608C90.6922 7.608 91.1216 8.01867 91.2802 8.84H91.3642C91.4202 8.672 91.4902 8.51333 91.5742 8.364C91.6582 8.21467 91.7609 8.084 91.8822 7.972C92.0036 7.86 92.1482 7.77133 92.3162 7.706C92.4842 7.64067 92.6802 7.608 92.9042 7.608C93.9122 7.608 94.4162 8.35 94.4162 9.834V15H92.7502V10.044C92.7502 9.708 92.6896 9.47467 92.5682 9.344C92.4562 9.204 92.3069 9.134 92.1202 9.134C91.9429 9.134 91.7889 9.19467 91.6582 9.316C91.5369 9.428 91.4762 9.60533 91.4762 9.848V15H89.7962V10.044C89.7962 9.708 89.7402 9.47467 89.6282 9.344C89.5256 9.204 89.3809 9.134 89.1942 9.134C89.0076 9.134 88.8489 9.19467 88.7182 9.316C88.5876 9.428 88.5222 9.60533 88.5222 9.848V15H86.8562ZM98.3868 15.168C97.1735 15.168 96.2541 14.832 95.6288 14.16C95.0035 13.488 94.6908 12.5733 94.6908 11.416C94.6908 10.828 94.7701 10.3007 94.9288 9.834C95.0968 9.358 95.3301 8.95667 95.6288 8.63C95.9368 8.294 96.3055 8.042 96.7348 7.874C97.1735 7.69667 97.6635 7.608 98.2048 7.608C98.7461 7.608 99.2315 7.69667 99.6608 7.874C100.09 8.042 100.454 8.28467 100.753 8.602C101.051 8.91933 101.28 9.30667 101.439 9.764C101.607 10.212 101.691 10.716 101.691 11.276V11.892H96.7488V12.018C96.7488 12.4847 96.8935 12.8627 97.1828 13.152C97.4721 13.432 97.8968 13.572 98.4568 13.572C98.8861 13.572 99.2548 13.4927 99.5628 13.334C99.8708 13.166 100.137 12.9467 100.361 12.676L101.481 13.894C101.201 14.2393 100.809 14.538 100.305 14.79C99.8008 15.042 99.1615 15.168 98.3868 15.168ZM98.2188 9.092C97.7708 9.092 97.4115 9.232 97.1408 9.512C96.8795 9.78267 96.7488 10.1513 96.7488 10.618V10.73H99.6608V10.618C99.6608 10.142 99.5301 9.76867 99.2688 9.498C99.0168 9.22733 98.6668 9.092 98.2188 9.092ZM102.455 15V7.776H104.527V9.092H104.611C104.695 8.88667 104.798 8.69533 104.919 8.518C105.041 8.34067 105.185 8.18667 105.353 8.056C105.531 7.916 105.731 7.80867 105.955 7.734C106.189 7.65 106.45 7.608 106.739 7.608C107.085 7.608 107.402 7.66867 107.691 7.79C107.981 7.902 108.228 8.07467 108.433 8.308C108.639 8.54133 108.797 8.826 108.909 9.162C109.031 9.498 109.091 9.88533 109.091 10.324V15H107.019V10.604C107.019 9.67067 106.613 9.204 105.801 9.204C105.643 9.204 105.484 9.22733 105.325 9.274C105.176 9.31133 105.041 9.37667 104.919 9.47C104.798 9.554 104.7 9.66133 104.625 9.792C104.56 9.92267 104.527 10.0767 104.527 10.254V15H102.455ZM113.86 15C113.113 15 112.558 14.804 112.194 14.412C111.83 14.02 111.648 13.5207 111.648 12.914V9.386H109.688V7.776H110.962C111.27 7.776 111.489 7.71533 111.62 7.594C111.751 7.47267 111.816 7.24867 111.816 6.922V5.228H113.72V7.776H116.534V9.386H113.72V13.39H116.534V15H113.86ZM120.854 15.168C120.294 15.168 119.79 15.084 119.342 14.916C118.894 14.7387 118.512 14.4867 118.194 14.16C117.886 13.8333 117.648 13.4367 117.48 12.97C117.312 12.5033 117.228 11.976 117.228 11.388C117.228 10.8 117.312 10.2727 117.48 9.806C117.648 9.33933 117.886 8.94267 118.194 8.616C118.512 8.28933 118.894 8.042 119.342 7.874C119.79 7.69667 120.294 7.608 120.854 7.608C121.414 7.608 121.918 7.69667 122.366 7.874C122.814 8.042 123.192 8.28933 123.5 8.616C123.818 8.94267 124.06 9.33933 124.228 9.806C124.396 10.2727 124.48 10.8 124.48 11.388C124.48 11.976 124.396 12.5033 124.228 12.97C124.06 13.4367 123.818 13.8333 123.5 14.16C123.192 14.4867 122.814 14.7387 122.366 14.916C121.918 15.084 121.414 15.168 120.854 15.168ZM120.854 13.628C121.321 13.628 121.685 13.4833 121.946 13.194C122.208 12.9047 122.338 12.494 122.338 11.962V10.814C122.338 10.282 122.208 9.87133 121.946 9.582C121.685 9.29267 121.321 9.148 120.854 9.148C120.388 9.148 120.024 9.29267 119.762 9.582C119.501 9.87133 119.37 10.282 119.37 10.814V11.962C119.37 12.494 119.501 12.9047 119.762 13.194C120.024 13.4833 120.388 13.628 120.854 13.628ZM125.245 13.39H126.911V9.386H125.245V7.776H128.983V9.82H129.081C129.146 9.55867 129.235 9.30667 129.347 9.064C129.468 8.812 129.618 8.59267 129.795 8.406C129.982 8.21 130.206 8.056 130.467 7.944C130.728 7.832 131.036 7.776 131.391 7.776H132.077V9.68H130.537C130.024 9.68 129.636 9.834 129.375 10.142C129.114 10.4407 128.983 10.8093 128.983 11.248V13.39H131.363V15H125.245V13.39Z" fill="white"/>
</svg>
